<?xml version="1.0" encoding="utf-8"?>
<!-- Generator: Adobe Illustrator 28.0.0, SVG Export Plug-In . SVG Version: 6.00 Build 0)  -->
<svg version="1.1" id="a" xmlns="http://www.w3.org/2000/svg" xmlns:xlink="http://www.w3.org/1999/xlink" x="0px" y="0px"
	 viewBox="0 0 300 60" style="enable-background:new 0 0 300 60;" xml:space="preserve">
<style type="text/css">
	.st0{fill:#58595B;}
	.st1{fill:#BCBEC0;}
	.st2{fill:#CE0E2D;}
	.st3{fill:#231F20;}
</style>
<g>
	<path class="st0" d="M48.9,50.5h-3.5v9.3h3.5c2.9,0,4.9-2,4.9-4.6v0C53.9,52.5,51.8,50.5,48.9,50.5z M52.1,55.2
		c0,1.8-1.3,3.1-3.2,3.1h-1.8V52h1.8C50.9,52,52.1,53.4,52.1,55.2L52.1,55.2z"/>
	<polygon class="st0" points="66.1,55.9 70.7,55.9 70.7,54.4 66.1,54.4 66.1,52 71.3,52 71.3,50.5 64.4,50.5 64.4,59.8 71.4,59.8 
		71.4,58.4 66.1,58.4 	"/>
	<path class="st0" d="M85.6,54.5c-1.8-0.4-2.2-0.8-2.2-1.5v0c0-0.6,0.6-1.1,1.5-1.1c0.8,0,1.7,0.3,2.5,1l0.9-1.2
		c-0.9-0.7-2-1.2-3.4-1.2c-1.8,0-3.2,1.1-3.2,2.7v0c0,1.7,1.1,2.3,3.1,2.8c1.7,0.4,2.1,0.8,2.1,1.4v0c0,0.7-0.6,1.2-1.6,1.2
		c-1.1,0-2-0.4-2.9-1.2l-1,1.2v0c1.1,1,2.5,1.5,3.9,1.5c2,0,3.3-1,3.3-2.8v0C88.5,55.6,87.5,54.9,85.6,54.5z"/>
	<polygon class="st0" points="99.2,59.8 100.8,59.8 100.8,50.5 99.2,50.5 	"/>
	<path class="st0" d="M116.2,56.1h2.4v1.7c-0.6,0.4-1.4,0.7-2.2,0.7c-1.9,0-3.2-1.4-3.2-3.3v0c0-1.8,1.3-3.3,3-3.3
		c1.2,0,1.9,0.4,2.6,1l1-1.2c-1-0.8-2-1.3-3.6-1.3c-2.8,0-4.8,2.2-4.8,4.8v0h0c0,2.7,1.9,4.8,4.8,4.8c1.6,0,3-0.7,3.9-1.4v-3.9h-4
		V56.1z"/>
	<polygon class="st0" points="137.4,57 132.4,50.5 130.9,50.5 130.9,59.8 132.5,59.8 132.5,53.2 137.6,59.8 139,59.8 139,50.5 
		137.4,50.5 	"/>
	<path class="st0" d="M166.2,54.5c-1.8-0.4-2.2-0.8-2.2-1.5v0c0-0.6,0.6-1.1,1.5-1.1c0.8,0,1.7,0.3,2.5,1l0.9-1.2
		c-0.9-0.7-2-1.2-3.4-1.2c-1.8,0-3.2,1.1-3.2,2.7v0c0,1.7,1.1,2.3,3.1,2.8c1.7,0.4,2.1,0.8,2.1,1.4v0c0,0.7-0.6,1.2-1.6,1.2
		c-1.1,0-2-0.4-2.9-1.2l-1,1.2l0,0c1.1,1,2.5,1.5,3.9,1.5c2,0,3.3-1,3.3-2.8v0C169.2,55.6,168.2,54.9,166.2,54.5z"/>
	<polygon class="st0" points="178.9,52.1 181.8,52.1 181.8,59.8 183.4,59.8 183.4,52.1 186.4,52.1 186.4,50.5 178.9,50.5 	"/>
	<path class="st0" d="M202.9,55.9c0,1.7-0.9,2.6-2.3,2.6c-1.5,0-2.3-0.9-2.3-2.6v-5.3h-1.6v5.3h0c0,2.7,1.5,4.1,4,4.1
		c2.4,0,4-1.4,4-4.2v-5.3h-1.6V55.9z"/>
	<path class="st0" d="M218.9,50.5h-3.5v9.3h3.5c2.9,0,4.9-2,4.9-4.6v0C223.8,52.5,221.8,50.5,218.9,50.5z M222.1,55.2
		c0,1.8-1.3,3.1-3.2,3.1H217V52h1.8C220.8,52,222.1,53.4,222.1,55.2L222.1,55.2z"/>
	<polygon class="st0" points="234.5,59.8 236.1,59.8 236.1,50.5 234.5,50.5 	"/>
	<path class="st0" d="M251.7,50.4c-2.8,0-4.9,2.2-4.9,4.8v0c0,2.6,2,4.8,4.8,4.8c2.8,0,4.9-2.2,4.9-4.8v0
		C256.5,52.6,254.5,50.4,251.7,50.4z M254.8,55.2L254.8,55.2c0,1.8-1.3,3.3-3.1,3.3c-1.8,0-3.2-1.5-3.2-3.3v0c0-1.8,1.3-3.3,3.1-3.3
		C253.5,51.9,254.8,53.4,254.8,55.2L254.8,55.2z"/>
</g>
<polygon class="st1" points="217.8,23.2 195.8,23.2 195.8,1.2 203.7,1.2 203.7,15.4 217.8,15.4 "/>
<polygon class="st2" points="203.7,37.4 195.8,37.4 195.8,23.2 181.6,23.2 181.6,15.4 203.7,15.4 "/>
<g>
	<path class="st3" d="M19.4,31C13,31,8.6,25.7,8.6,19.3v-0.1c0-6.4,4.5-11.6,10.8-11.6c3.7,0,6.7,1.6,9.5,4.2l5.2-6
		C30.7,2.3,26.5,0,19.5,0C8,0,0,8.7,0,19.3v0.1l0,0c0,10.7,8.2,19.2,19.2,19.2c7.2,0,11.5-2.6,15.3-6.7l-5.2-5.3
		C26.3,29.3,23.7,31,19.4,31z"/>
	<path class="st3" d="M62.5,0C51,0,42.6,8.7,42.6,19.3v0.1c0,10.6,8.3,19.2,19.8,19.2s19.9-8.7,19.9-19.3v-0.1C82.3,8.6,74,0,62.5,0
		z M73.7,19.4c0,6.4-4.6,11.6-11.2,11.6s-11.3-5.3-11.3-11.7v-0.1c0-6.4,4.6-11.6,11.2-11.6S73.7,12.9,73.7,19.4L73.7,19.4z"/>
	<path class="st3" d="M117.6,22c0,5.9-3,9-8.1,9c-5,0-8.1-3.1-8.1-9.2V0.6h-8.2V22h0c0,11,6.1,16.6,16.2,16.6s16.4-5.5,16.4-16.9
		V0.6h-8.2V22z"/>
	<polygon class="st3" points="163.5,23.6 146,0.6 138.5,0.6 138.5,38 146.6,38 146.6,14.2 164.7,38 171.7,38 171.7,0.6 163.5,0.6 	
		"/>
	<polygon class="st3" points="227.7,0.6 227.7,0.6 227.7,0.6 	"/>
	<polygon class="st3" points="235.9,22.8 253.5,22.8 253.5,15.5 235.9,15.5 235.9,7.9 255.9,7.9 255.9,0.6 227.7,0.6 227.7,38 
		256.1,38 256.1,30.7 235.9,30.7 	"/>
	<path class="st3" d="M290.9,24.6c4.7-1.8,8-5.5,8-11.6V13c0-3.5-1.1-6.5-3.2-8.5c-2.5-2.5-6.1-3.8-10.9-3.8h-17.1V38h8.2V26h6.5
		l8,12h9.6L290.9,24.6z M290.5,13.5c0,3.1-2.3,5.3-6.3,5.3h-8.3V8.1h8.2c4,0,6.5,1.8,6.5,5.3V13.5z"/>
</g>
</svg>
